# xmcd
#
# Track frame offsets:
#  182
#  14407
#  29495
#  44207
#  56657
#  70465
#  83857
#  99482
#  113557
#  127687
#
# Disc length: 1913 seconds
#
# Revision: 0
# Processed by: cddbd v1.5.1PL2 Copyright (c) Steve Scherf et al.
# Submitted via: Collectorz.com Music Collector 6.9
#
DISCID=8507770a
DTITLE=Linda Davis - Shoot For The Moon
DYEAR=1900
DGENRE=
TTITLE0=Shoot For The Moon
TTITLE1=Company Time
TTITLE2=If Promises Were Gold
TTITLE3=Love Didn't Do It
TTITLE4=He's In Dallas
TTITLE5=When You Took Our Love Away
TTITLE6=How Can I Make You Love Me
TTITLE7=Don't You Want My Love
TTITLE8=In Pictures
TTITLE9=A Family Tie
EXTD=
EXTT0=
EXTT1=
EXTT2=
EXTT3=
EXTT4=
EXTT5=
EXTT6=
EXTT7=
EXTT8=
EXTT9=
PLAYORDER=
